<svg width="32" height="32" viewBox="0 0 32 32" fill="none" xmlns="http://www.w3.org/2000/svg">
<path d="M16 0C7.16344 0 0 7.16344 0 16C0 24.8366 7.16344 32 16 32C24.8366 32 32 24.8366 32 16C32 7.16344 24.8366 0 16 0Z" fill="#E5E5E5"/>
<path d="M16 4C9.37258 4 4 9.37258 4 16C4 22.6274 9.37258 28 16 28C22.6274 28 28 22.6274 28 16C28 9.37258 22.6274 4 16 4Z" fill="white"/>
<path d="M16.0002 8.5C11.8579 8.5 8.50016 11.8577 8.50016 16C8.50016 20.1423 11.8579 23.5 16.0002 23.5C20.1424 23.5 23.5002 20.1423 23.5002 16C23.5002 11.8577 20.1424 8.5 16.0002 8.5ZM16.0002 21.6667C12.868 21.6667 10.3335 19.1322 10.3335 16C10.3335 12.8678 12.868 10.3333 16.0002 10.3333C19.1324 10.3333 21.6668 12.8678 21.6668 16C21.6668 19.1322 19.1324 21.6667 16.0002 21.6667Z" fill="#BDBDBD"/>
</svg>
