<svg width="32" height="32" viewBox="0 0 32 32" fill="none" xmlns="http://www.w3.org/2000/svg">
<path d="M16 32C24.8366 32 32 24.8366 32 16C32 7.16344 24.8366 0 16 0C7.16344 0 0 7.16344 0 16C0 24.8366 7.16344 32 16 32Z" fill="#FDE2E2"/>
<path d="M16 28C22.6274 28 28 22.6274 28 16C28 9.37258 22.6274 4 16 4C9.37258 4 4 9.37258 4 16C4 22.6274 9.37258 28 16 28Z" fill="#F5C1C1"/>
<path d="M16 11.5C15.175 11.5 14.5 12.175 14.5 13C14.5 13.825 15.175 14.5 16 14.5C16.825 14.5 17.5 13.825 17.5 13C17.5 12.175 16.825 11.5 16 11.5ZM16 8C13.24 8 11 10.24 11 13C11 15.315 13.56 18.59 15.42 20.72C15.72 21.075 16.28 21.075 16.58 20.72C18.44 18.59 21 15.315 21 13C21 10.24 18.76 8 16 8Z" fill="#E57373"/>
</svg>
