<svg width="24" height="24" viewBox="0 0 24 24" fill="none" xmlns="http://www.w3.org/2000/svg">
<path d="M12 2C6.48 2 2 6.48 2 12C2 17.52 6.48 22 12 22C17.52 22 22 17.52 22 12C22 6.48 17.52 2 12 2ZM12 20C7.59 20 4 16.41 4 12C4 7.59 7.59 4 12 4C16.41 4 20 7.59 20 12C20 16.41 16.41 20 12 20Z" fill="#F03E2F"/>
<path d="M12 6C9.24 6 7 8.24 7 11L7 13C7 15.76 9.24 18 12 18C14.76 18 17 15.76 17 13L17 11C17 8.24 14.76 6 12 6ZM12 16C10.35 16 9 14.65 9 13L9 11C9 9.35 10.35 8 12 8C13.65 8 15 9.35 15 11L15 13C15 14.65 13.65 16 12 16Z" fill="#F03E2F"/>
</svg>
