<svg width="24" height="24" viewBox="0 0 24 24" fill="none" xmlns="http://www.w3.org/2000/svg">
<path d="M2 12C2 6.48 6.48 2 12 2C17.52 2 22 6.48 22 12C22 17.52 17.52 22 12 22C6.48 22 2 17.52 2 12Z" fill="#6772E5"/>
<path d="M6 12C6 8.69 8.69 6 12 6C15.31 6 18 8.69 18 12C18 15.31 15.31 18 12 18C8.69 18 6 15.31 6 12Z" fill="white"/>
<path d="M7 12C7 9.24 9.24 7 12 7C14.76 7 17 9.24 17 12C17 14.76 14.76 17 12 17C9.24 17 7 14.76 7 12Z" fill="#6772E5"/>
<path d="M13 8H11V16H13V8Z" fill="white"/>
</svg>
