<svg width="24" height="24" viewBox="0 0 24 24" fill="none" xmlns="http://www.w3.org/2000/svg">
<path d="M22 12C22 6.48 17.52 2 12 2C6.48 2 2 6.48 2 12C2 17.52 6.48 22 12 22C17.52 22 22 17.52 22 12Z" fill="#FF3E00"/>
<path d="M12 4C14.74 4 17.17 5.38 18.68 7.32L16.29 8.68C15.29 7.42 13.76 6.5 12 6.5C9.43 6.5 7.34 8.24 6.66 10.5H12V12H5.5C5.5 11.5 5.5 11 5.5 10.5C5.5 7.19 8.44 4.5 12 4.5V4ZM18.5 13.5C18.5 16.81 15.56 19.5 12 19.5C9.26 19.5 6.83 18.12 5.32 16.18L7.71 14.82C8.71 16.08 10.24 17 12 17C14.57 17 16.66 15.26 17.34 13H12V11.5H18.5V13.5Z" fill="white"/>
</svg>
