<svg width="24" height="24" viewBox="0 0 24 24" fill="none" xmlns="http://www.w3.org/2000/svg">
<path d="M2 3H22V21H2V3Z" fill="#007ACC"/>
<path d="M12.28 15.89H9.33V10.2H11.16V14.3H12.28V15.89ZM16.67 15.89H13.61V14.53L15.42 12.44C15.86 11.95 16.14 11.61 16.27 11.41C16.4 11.22 16.46 11.02 16.46 10.83C16.46 10.51 16.32 10.26 16.03 10.09C15.74 9.91 15.36 9.82 14.88 9.82C14.33 9.82 13.88 9.93 13.53 10.15V11.53H11.75V10.08C12.14 9.87 12.63 9.71 13.2 9.6C13.78 9.49 14.39 9.44 15.02 9.44C16.11 9.44 16.94 9.69 17.51 10.19C18.08 10.69 18.37 11.37 18.37 12.23C18.37 12.7 18.23 13.16 17.94 13.62C17.65 14.07 17.12 14.67 16.34 15.42L15.34 16.4H18.42V17.89H12.28V15.89H16.67Z" fill="white"/>
</svg>
