<svg width="32" height="32" viewBox="0 0 32 32" fill="none" xmlns="http://www.w3.org/2000/svg">
<path d="M16 30C23.732 30 30 23.732 30 16C30 8.26801 23.732 2 16 2C8.26801 2 2 8.26801 2 16C2 23.732 8.26801 30 16 30Z" fill="#FDB39B"/>
<path d="M21.0596 21.0596C19.825 22.2942 17.9941 23 16 23C14.0059 23 12.175 22.2942 10.9404 21.0596C9.70585 19.825 9 17.9941 9 16C9 14.0059 9.70585 12.175 10.9404 10.9404C12.175 9.70585 14.0059 9 16 9C17.9941 9 19.825 9.70585 21.0596 10.9404C22.2942 12.175 23 14.0059 23 16C23 17.9941 22.2942 19.825 21.0596 21.0596Z" stroke="white" stroke-width="2" stroke-linecap="round" stroke-linejoin="round"/>
</svg>
