<svg width="32" height="32" viewBox="0 0 32 32" fill="none" xmlns="http://www.w3.org/2000/svg">
<path d="M16 2C8.268 2 2 8.268 2 16C2 23.732 8.268 30 16 30C23.732 30 30 23.732 30 16C30 8.268 23.732 2 16 2Z" fill="#2A2824"/>
<path d="M22.999 16C22.999 19.866 19.865 23 15.999 23C12.133 23 9 19.866 9 16C9 12.134 12.133 9 15.999 9C19.865 9 22.999 12.134 22.999 16Z" fill="white"/>
<path d="M16.001 16C16.001 17.1904 15.1114 18.1482 14.021 18.1482C12.9306 18.1482 12 17.1904 12 16C12 14.8096 12.9306 13.8518 14.021 13.8518C15.1114 13.8518 16.001 14.8096 16.001 16Z" fill="#2A2824"/>
</svg>
