<svg width="24" height="24" viewBox="0 0 24 24" fill="none" xmlns="http://www.w3.org/2000/svg">
<path d="M2 12C2 7.28599 2 4.92898 3.46447 3.46447C4.92898 2 7.28599 2 12 2C16.714 2 19.071 2 20.5355 3.46447C22 4.92898 22 7.28599 22 12C22 16.714 22 19.071 20.5355 20.5355C19.071 22 16.714 22 12 22C7.28599 22 4.92898 22 3.46447 20.5355C2 19.071 2 16.714 2 12Z" fill="#27AE60"/>
<path d="M17 7H7V17H17V7Z" stroke="white" stroke-width="2" stroke-linecap="round" stroke-linejoin="round"/>
<path d="M12 12H17" stroke="white" stroke-width="2" stroke-linecap="round" stroke-linejoin="round"/>
<path d="M7 12H9" stroke="white" stroke-width="2" stroke-linecap="round" stroke-linejoin="round"/>
</svg>
