<svg width="24" height="24" viewBox="0 0 24 24" fill="none" xmlns="http://www.w3.org/2000/svg">
<path d="M12 2C6.48 2 2 6.48 2 12C2 17.52 6.48 22 12 22C17.52 22 22 17.52 22 12C22 6.48 17.52 2 12 2ZM12.16 18.43C9.9 18.43 7.82 17.9 6.13 16.92L7.68 15.8C8.89 16.5 10.37 16.95 12.16 16.95C14.83 16.95 16.11 15.65 16.11 13.91C16.11 12.82 15.5 12.03 13.31 11.23L11.83 10.66C10.22 10.01 9.49 9.07 9.49 7.83C9.49 6.2 10.82 5.03 12.89 5.03C14.28 5.03 15.53 5.43 16.53 6.01L15.22 7.25C14.47 6.81 13.62 6.51 12.89 6.51C11.3 6.51 10.6 7.25 10.6 8.01C10.6 8.78 11.11 9.38 12.67 9.98L14.29 10.6C16.12 11.34 17.21 12.35 17.21 14.1C17.22 16.17 15.35 18.43 12.16 18.43Z" fill="#47A248"/>
</svg>
