<svg width="24" height="24" viewBox="0 0 24 24" fill="none" xmlns="http://www.w3.org/2000/svg">
<circle cx="12" cy="12" r="10" fill="white"/>
<path d="M12 2C6.48 2 2 6.48 2 12C2 17.52 6.48 22 12 22C17.52 22 22 17.52 22 12C22 6.48 17.52 2 12 2ZM12 20C7.59 20 4 16.41 4 12C4 7.59 7.59 4 12 4C16.41 4 20 7.59 20 12C20 16.41 16.41 20 12 20Z" fill="black"/>
<path d="M13.52 7H15.5L9.5 17H7.5L13.52 7Z" fill="black"/>
<path d="M17 17H15.5L14 14.5H10V17H8V7H14.5C16.43 7 18 8.57 18 10.5C18 12.43 16.43 14 14.5 14H11.5L17 17ZM14.5 9H10V12H14.5C15.33 12 16 11.33 16 10.5C16 9.67 15.33 9 14.5 9Z" fill="black"/>
</svg>
