<svg width="24" height="24" viewBox="0 0 24 24" fill="none" xmlns="http://www.w3.org/2000/svg">
<path d="M12 2C6.48 2 2 6.48 2 12C2 17.52 6.48 22 12 22C17.52 22 22 17.52 22 12C22 6.48 17.52 2 12 2ZM11.19 18.41L9.67 19.34L6.96 15.32L9.04 14.07L9.7 15.11L11.19 18.41ZM9.85 12.3L7.77 13.55L4.09 7.54L6.17 6.29L9.85 12.3ZM12.79 18.52L11.3 15.22L11.96 14.18L14.04 15.43L12.79 18.52ZM15.91 14.05L11.85 11.66L14.03 7.64L15.33 8.44L15.91 14.05ZM17.83 7.06L16.53 6.26L14.19 10.43L15.44 11.18L17.83 7.06Z" fill="#339933"/>
</svg>
