<svg width="24" height="24" viewBox="0 0 24 24" fill="none" xmlns="http://www.w3.org/2000/svg">
<path d="M12 2C6.48 2 2 6.48 2 12C2 17.52 6.48 22 12 22C17.52 22 22 17.52 22 12C22 6.48 17.52 2 12 2Z" fill="#F03E2F"/>
<path d="M12 15C13.6569 15 15 13.6569 15 12C15 10.3431 13.6569 9 12 9C10.3431 9 9 10.3431 9 12C9 13.6569 10.3431 15 12 15Z" stroke="white" stroke-width="2"/>
<path d="M12 9V4" stroke="white" stroke-width="2" stroke-linecap="round"/>
<path d="M12 20V15" stroke="white" stroke-width="2" stroke-linecap="round"/>
<path d="M9 12H4" stroke="white" stroke-width="2" stroke-linecap="round"/>
<path d="M20 12H15" stroke="white" stroke-width="2" stroke-linecap="round"/>
</svg>
