<svg width="24" height="24" viewBox="0 0 24 24" fill="none" xmlns="http://www.w3.org/2000/svg">
<path d="M12 2C6.48 2 2 6.48 2 12C2 17.52 6.48 22 12 22C17.52 22 22 17.52 22 12C22 6.48 17.52 2 12 2Z" fill="#635BFF"/>
<path d="M14.5 7H8V9H14.5C15.33 9 16 9.67 16 10.5C16 11.33 15.33 12 14.5 12H11V14H14.5C16.43 14 18 12.43 18 10.5C18 8.57 16.43 7 14.5 7Z" fill="white"/>
<path d="M9.5 17H16V15H9.5C8.67 15 8 14.33 8 13.5C8 12.67 8.67 12 9.5 12H13V10H9.5C7.57 10 6 11.57 6 13.5C6 15.43 7.57 17 9.5 17Z" fill="white"/>
</svg>
