<svg width="24" height="24" viewBox="0 0 24 24" fill="none" xmlns="http://www.w3.org/2000/svg">
<path d="M2 12C2 7.28599 2 4.92898 3.46447 3.46447C4.92898 2 7.28599 2 12 2C16.714 2 19.071 2 20.5355 3.46447C22 4.92898 22 7.28599 22 12C22 16.714 22 19.071 20.5355 20.5355C19.071 22 16.714 22 12 22C7.28599 22 4.92898 22 3.46447 20.5355C2 19.071 2 16.714 2 12Z" fill="#FF3E00"/>
<path fill-rule="evenodd" clip-rule="evenodd" d="M10.63 6.84C10.98 6.9 11.3 7.03 11.59 7.23L12.63 6.3C11.95 5.79 11.13 5.49 10.21 5.49C8.59 5.49 7.37 6.43 6.94 7.84L12.83 10.61L12.92 10.23C13.23 8.78 14.57 7.73 16.08 7.73C17.65 7.73 18.78 8.75 18.78 10.2C18.78 11.83 17.48 13.04 15.9 13.04C15.42 13.04 14.97 12.93 14.59 12.75L13.56 13.68C14.33 14.2 15.22 14.51 16.2 14.51C17.81 14.51 19.02 13.57 19.46 12.16L13.57 9.39L13.48 9.77C13.17 11.22 11.83 12.27 10.32 12.27C8.75 12.27 7.62 11.25 7.62 9.8C7.62 8.17 8.92 6.96 10.5 6.96L10.63 6.84ZM5 10.2C5 8.35 6.43 6.91 8.24 6.91C8.72 6.91 9.17 7.02 9.56 7.2L10.59 6.27C9.82 5.76 8.93 5.45 8 5.45C5.58 5.45 3.6 7.42 3.6 9.83C3.6 11.53 4.54 12.96 5.92 13.6L5.96 13.57C5.39 12.67 5 11.48 5 10.2ZM20.4 10.17C20.4 12.58 18.42 14.55 16 14.55C15.07 14.55 14.18 14.24 13.41 13.73L12.38 14.66C13.29 15.34 14.57 15.82 16 15.82C19.3 15.82 21.89 13.27 21.89 10.17C21.89 8.47 20.96 7.04 19.58 6.4L19.54 6.43C20.01 7.33 20.4 8.52 20.4 9.8V10.17Z" fill="white"/>
<path fill-rule="evenodd" clip-rule="evenodd" d="M9.56 16.8L10.59 17.73C9.82 18.24 8.93 18.55 8 18.55C5.58 18.55 3.6 16.58 3.6 14.17C3.6 12.47 4.54 11.04 5.92 10.4L5.96 10.43C5.39 11.33 5 12.52 5 13.8C5 15.65 6.43 17.09 8.24 17.09C8.72 17.09 9.17 16.98 9.56 16.8Z" fill="white"/>
<path fill-rule="evenodd" clip-rule="evenodd" d="M19.54 17.57L19.58 17.6C20.96 16.96 21.89 15.53 21.89 13.83C21.89 10.73 19.3 8.18 16 8.18C14.57 8.18 13.29 8.66 12.38 9.34L13.41 10.27C14.18 9.76 15.07 9.45 16 9.45C18.42 9.45 20.4 11.42 20.4 13.83C20.4 15.48 20.01 16.67 19.54 17.57Z" fill="white"/>
</svg>
