<svg width="24" height="24" viewBox="0 0 24 24" fill="none" xmlns="http://www.w3.org/2000/svg">
<path d="M12 18C15.3137 18 18 15.3137 18 12C18 8.68629 15.3137 6 12 6C8.68629 6 6 8.68629 6 12C6 15.3137 8.68629 18 12 18Z" fill="#38BDF8"/>
<path d="M12 12C13.6569 12 15 10.6569 15 9C15 7.34315 13.6569 6 12 6C10.3431 6 9 7.34315 9 9C9 10.6569 10.3431 12 12 12Z" fill="#0EA5E9"/>
<path d="M16.5 16.5C18.1569 16.5 19.5 15.1569 19.5 13.5C19.5 11.8431 18.1569 10.5 16.5 10.5C14.8431 10.5 13.5 11.8431 13.5 13.5C13.5 15.1569 14.8431 16.5 16.5 16.5Z" fill="#0EA5E9"/>
<path d="M7.5 16.5C9.15685 16.5 10.5 15.1569 10.5 13.5C10.5 11.8431 9.15685 10.5 7.5 10.5C5.84315 10.5 4.5 11.8431 4.5 13.5C4.5 15.1569 5.84315 16.5 7.5 16.5Z" fill="#0EA5E9"/>
</svg>
