<svg width="24" height="24" viewBox="0 0 24 24" fill="none" xmlns="http://www.w3.org/2000/svg">
<path d="M2 12C2 7.28599 2 4.92898 3.46447 3.46447C4.92898 2 7.28599 2 12 2C16.714 2 19.071 2 20.5355 3.46447C22 4.92898 22 7.28599 22 12C22 16.714 22 19.071 20.5355 20.5355C19.071 22 16.714 22 12 22C7.28599 22 4.92898 22 3.46447 20.5355C2 19.071 2 16.714 2 12Z" fill="#3178C6"/>
<path d="M10.1579 16.1263H12.9263V8.87368H16V6.87368H7V8.87368H10.1579V16.1263Z" fill="white"/>
<path d="M17.4842 16.9684C18.2737 16.6 18.7368 15.7895 18.7368 14.8211C18.7368 13.0421 17.2632 12.0105 15.3684 11.4526L14.5 11.1684C14.0474 11.0211 13.7895 10.8 13.7895 10.4526C13.7895 10.1263 14.0579 9.87368 14.4526 9.87368C14.8474 9.87368 15.2421 10.0526 15.4947 10.2316L16.2947 9.16842C15.8211 8.8 15.1789 8.61053 14.4526 8.61053C13.5684 8.61053 12.8737 9.07368 12.8737 9.86316C12.8737 10.6 13.4 11.2316 14.5474 11.6L15.4421 11.8947C15.9368 12.0632 16.2105 12.3368 16.2105 12.7263C16.2105 13.1263 15.8632 13.4105 15.3263 13.4105C14.7368 13.4105 14.2316 13.1474 13.9263 12.9L13.1684 13.9895C13.7263 14.4421 14.4526 14.6526 15.2842 14.6526C16.1474 14.6526 16.9053 14.1684 16.9053 13.2526V16.9684H17.4842Z" fill="white"/>
</svg>
